<svg xmlns="http://www.w3.org/2000/svg" viewBox="0 0 64 64"><g id="_07-Shake_hands" data-name="07-Shake hands"><polygon points="17 20 9 33 1 29 1 10 17 20" style="fill:#795799"/><path d="M12.85,36.85,16,33.69a2.33,2.33,0,0,1,3.31,0A2.3,2.3,0,0,1,20,35.34,2.34,2.34,0,0,1,19.31,37L16,40.31A2.341,2.341,0,1,1,12.69,37Z" style="fill:#deab99"/><path d="M33.47,47.82a.435.435,0,0,1-.06.07,1,1,0,0,1-.1.11l-2.88,2.88-.43.43A2.341,2.341,0,1,1,26.69,48L30,44.69a2.33,2.33,0,0,1,3.31,0A2.3,2.3,0,0,1,34,46.34,2.356,2.356,0,0,1,33.47,47.82Z" style="fill:#deab99"/><path d="M30,42.93A2.882,2.882,0,0,1,29.14,45l-2.72,2.73L25,49.14A2.927,2.927,0,0,1,20.86,45l3.64-3.64.5-.5a2.915,2.915,0,0,1,4.14,0A2.882,2.882,0,0,1,30,42.93Z" style="fill:#deab99"/><path d="M25,38.93A2.882,2.882,0,0,1,24.14,41L20,45.14A2.927,2.927,0,0,1,15.86,41l3.73-3.72.41-.42a2.915,2.915,0,0,1,4.14,0A2.882,2.882,0,0,1,25,38.93Z" style="fill:#deab99"/><path d="M19.31,35,16,38.31a2.33,2.33,0,0,1-3.31,0,2.3,2.3,0,0,1-.454-.653A2.336,2.336,0,0,0,16,40.31L19.31,37A2.34,2.34,0,0,0,20,35.34a2.314,2.314,0,0,0-.235-1A2.344,2.344,0,0,1,19.31,35Z" style="fill:#d18e78"/><path d="M31,48.31a2.346,2.346,0,0,1-3.832-.788L26.69,48A2.341,2.341,0,1,0,30,51.31l.43-.43L33.31,48a1,1,0,0,0,.1-.11.435.435,0,0,0,.06-.07A2.356,2.356,0,0,0,34,46.34a2.332,2.332,0,0,0-.167-.863l-2.4,2.4Z" style="fill:#d18e78"/><path d="M26,46.14a2.92,2.92,0,0,1-4.908-1.372L20.86,45A2.927,2.927,0,0,0,25,49.14l1.42-1.41L29.14,45A2.882,2.882,0,0,0,30,42.93a2.982,2.982,0,0,0-.093-.7l-2.487,2.5Z" style="fill:#d18e78"/><path d="M16.86,42.14a2.874,2.874,0,0,1-.767-1.372L15.86,41A2.927,2.927,0,0,0,20,45.14L24.14,41A2.882,2.882,0,0,0,25,38.93a3,3,0,0,0-.093-.7L21,42.14A2.915,2.915,0,0,1,16.86,42.14Z" style="fill:#d18e78"/><path d="M40.8,33.99c-8.05-.08-8.11-5.51-8.63-7.74A1.573,1.573,0,0,0,30.63,25h-.06A1.566,1.566,0,0,0,29,26.57V28a3,3,0,0,1-3,3,2.015,2.015,0,0,1-2-2V23.39a2.014,2.014,0,0,1,1.3-1.88l3.74-1.4,2.28-.86A4.23,4.23,0,0,1,32.73,19h2.68a4.052,4.052,0,0,1,1.15.17L46,22l17-9V30L53,35l-5,6-.04.01a2.468,2.468,0,0,0-.85-1.53L40.8,34Z" style="fill:#deab99"/><path d="M36.29,50.38a2.039,2.039,0,0,1,.09,3.01,2.162,2.162,0,0,1-1.5.61,2.132,2.132,0,0,1-1.39-.51l-3.06-2.61L33.31,48a1,1,0,0,0,.1-.11Z" style="fill:#ffb5b5"/><path d="M33.31,44.69a2.33,2.33,0,0,0-3.31,0L26.69,48l-.27-.27L29.14,45a2.921,2.921,0,0,0,0-4.14,2.915,2.915,0,0,0-4.14,0l-.5.5L24.14,41a2.921,2.921,0,0,0,0-4.14,2.915,2.915,0,0,0-4.14,0l-.41.42L19.31,37A2.34,2.34,0,0,0,20,35.34a2.3,2.3,0,0,0-.69-1.65,2.33,2.33,0,0,0-3.31,0l-3.15,3.16L9,33l8-13H29l.04.11-3.74,1.4A2.014,2.014,0,0,0,24,23.39V29a2.015,2.015,0,0,0,2,2,3,3,0,0,0,3-3V26.57A1.566,1.566,0,0,1,30.57,25h.06a1.573,1.573,0,0,1,1.54,1.25c.52,2.23.58,7.66,8.63,7.74V34l6.31,5.48a2.468,2.468,0,0,1,.85,1.53,2.51,2.51,0,0,1-.74,2.23,1.869,1.869,0,0,1-1.35.6A3.034,3.034,0,0,1,44,43a3.123,3.123,0,0,1,.22,4.24,2.43,2.43,0,0,1-1.74.6A4.027,4.027,0,0,1,40,47c1.14.99,2.3,3.19,1.22,4.24a2.683,2.683,0,0,1-3.61.12l-4.14-3.54A2.356,2.356,0,0,0,34,46.34,2.3,2.3,0,0,0,33.31,44.69Z" style="fill:#ffd1d1"/><path d="M36.766,41.371A1.834,1.834,0,0,0,34,42l.73.61L40,47a4.027,4.027,0,0,0,2.48.84,2.43,2.43,0,0,0,1.74-.6,2.113,2.113,0,0,0,.306-.391,2.975,2.975,0,0,1-1.64-.728Z" style="fill:#ffb5b5"/><path d="M38.888,50.152l-4.953-4.334a2.279,2.279,0,0,1-.465,2l4.14,3.54a2.683,2.683,0,0,0,3.61-.12,1.346,1.346,0,0,0,.286-.416A3,3,0,0,1,38.888,50.152Z" style="fill:#ffb5b5"/><path d="M47.22,43.24a2.5,2.5,0,0,0,.68-1.179,1.986,1.986,0,0,1-1.6-.382l-5.151-4.006a3.086,3.086,0,0,0-4.078.254h0a.088.088,0,0,0,.011.133L44,43a3.034,3.034,0,0,0,1.87.84A1.869,1.869,0,0,0,47.22,43.24Z" style="fill:#ffb5b5"/><path d="M27,33a3,3,0,0,0,3-3V29s1,7,7,7c1.6,0,3.9-.259,3.984-1.84L40.8,34v-.01c-8.05-.08-8.11-5.51-8.63-7.74A1.573,1.573,0,0,0,30.63,25h-.06A1.566,1.566,0,0,0,29,26.57V28a3,3,0,0,1-3,3,2.015,2.015,0,0,1-2-2v1A3,3,0,0,0,27,33Z" style="fill:#ffb5b5"/><path d="M14.764,28.724,19.462,20H17L9,33l3.85,3.85,2.519-2.527A4.99,4.99,0,0,1,14.764,28.724Z" style="fill:#ffb5b5"/><path d="M19.31,37l-2.776,2.776.309.244,2.747-2.74.41-.42a2.914,2.914,0,0,1,.627-.467l-.7-.512A2.332,2.332,0,0,1,19.31,37Z" style="fill:#ffb5b5"/><path d="M24.14,41l-2.662,2.662.4.316L24.5,41.36l.5-.5a2.877,2.877,0,0,1,.891-.606l-.961-.7A2.85,2.85,0,0,1,24.14,41Z" style="fill:#ffb5b5"/><path d="M29.97,43.245A2.856,2.856,0,0,1,29.14,45l-2.616,2.626-.1.1.27.27.136-.136L30,44.69a2.334,2.334,0,0,1,.849-.539L31,44Z" style="fill:#ffb5b5"/><path d="M33.457,28.025l-.2-2.173A3.136,3.136,0,0,0,27,26.136V28.5a1.5,1.5,0,0,1-3,0V29a1.955,1.955,0,0,0,.59,1.41c.78.8,2.217.9,3.4-.42A4.21,4.21,0,0,0,29,27.176V26.57A1.57,1.57,0,0,1,30.57,25h.06a1.573,1.573,0,0,1,1.54,1.25c.453,1.942.562,6.308,5.9,7.457A6.571,6.571,0,0,1,33.457,28.025Z" style="fill:#d18e78"/><path d="M52,32l-1.419,1.419A3.1,3.1,0,0,1,47,34H40.8l6.31,5.48a2.468,2.468,0,0,1,.85,1.53L48,41l5-6,10-5V26.5Z" style="fill:#d18e78"/><path d="M52.744,23,63,17.533V13L46,22A5.727,5.727,0,0,0,52.744,23Z" style="fill:#ebb5a2"/><path d="M13.033,17.52,9.007,23.845a4,4,0,0,1-5.29,1.364L1,23.727V29l8,4,8-13Z" style="fill:#573875"/></g></svg>